# Blender v2.75 (sub 0) OBJ File: ''
# www.blender.org
o Cube
v 0.500000 -0.500000 -0.500000
v 0.500000 -0.500000 0.500000
v -0.500000 -0.500000 0.500000
v -0.500000 -0.500000 -0.500000
v 0.500000 0.500000 -0.500000
v 0.500000 0.500000 0.500000
v -0.500000 0.500000 -0.500000
vn 0.000000 -1.000000 0.000000
vn 1.000000 0.000000 0.000000
vn 0.000000 0.000000 -1.000000
vn 0.000000 1.000000 0.000000
vn 0.000000 -0.000000 1.000000
vn -0.816500 0.408200 0.408200
s off
f 1//1 2//1 3//1 4//1
f 1//2 5//2 6//2 2//2
f 5//3 1//3 4//3 7//3
f 5//4 7//4 6//4
f 2//5 6//5 3//5
f 3//6 6//6 7//6 4//6
