# Blender v2.75 (sub 0) OBJ File: ''
# www.blender.org
mtllib slopeBlock.mtl
o Cube
v -0.500000 -0.500000 -0.500000
v 0.500000 -0.500000 -0.500000
v 0.500000 -0.500000 0.500000
v -0.500000 -0.500000 0.500000
v -0.500000 0.500000 -0.500000
v 0.500000 0.500000 -0.500000
vn 0.000000 -1.000000 -0.000000
vn 0.000000 0.000000 -1.000000
vn -0.000000 0.707100 0.707100
vn -1.000000 0.000000 -0.000000
vn 1.000000 -0.000000 0.000000
usemtl Material
s off
f 1//1 2//1 3//1 4//1
f 1//2 5//2 6//2 2//2
f 3//3 6//3 5//3 4//3
f 5//4 1//4 4//4
f 2//5 6//5 3//5
